<svg width="1440" height="1042" viewBox="0 0 1440 1042" fill="none" xmlns="http://www.w3.org/2000/svg">
<g clip-path="url(#clip0_4164_77816)">
<rect width="1441" height="1042" fill="#5528FF"/>
<path opacity="0.2" d="M-56 197.31L-55.915 0.46529L79.987 -49L215.804 0.499283L215.889 197.276L79.987 246.809L-56 197.31Z" fill="#5528FF" stroke="#D9D9D9" stroke-miterlimit="10"/>
<path opacity="0.2" d="M-55.915 0.463867L79.987 49.9971L215.804 0.497865" stroke="#D9D9D9" stroke-miterlimit="10"/>
<path opacity="0.2" d="M79.8596 51.0469V246.807" stroke="#D9D9D9" stroke-miterlimit="10"/>
<path opacity="0.2" d="M-192 443.337L-191.915 246.493L-56.013 197.027L79.8041 246.527L79.8891 443.303L-56.013 492.837L-192 443.337Z" stroke="#D9D9D9" stroke-miterlimit="10"/>
<path opacity="0.2" d="M-191.915 246.491L-56.013 296.024L79.8041 246.525" stroke="#D9D9D9" stroke-miterlimit="10"/>
<path opacity="0.2" d="M80 640.31L80.085 443.465L215.987 394L351.804 443.499L351.889 640.276L215.987 689.809L80 640.31Z" stroke="#D9D9D9" stroke-miterlimit="10"/>
<path opacity="0.2" d="M80.085 443.464L215.987 492.997L351.804 443.498" stroke="#D9D9D9" stroke-miterlimit="10"/>
<path opacity="0.2" d="M215.86 494.047V689.807" stroke="#D9D9D9" stroke-miterlimit="10"/>
<path opacity="0.2" d="M352 838.31L352.085 641.465L487.987 592L623.804 641.499L623.889 838.276L487.987 887.809L352 838.31Z" stroke="#D9D9D9" stroke-miterlimit="10"/>
<path opacity="0.2" d="M352.085 641.464L487.987 690.997L623.804 641.498" stroke="#D9D9D9" stroke-miterlimit="10"/>
<path opacity="0.2" d="M487.86 692.047V887.807" stroke="#D9D9D9" stroke-miterlimit="10"/>
<path opacity="0.2" d="M624 1035.31L624.085 838.465L759.987 789L895.804 838.499L895.889 1035.28L759.987 1084.81L624 1035.31Z" stroke="#D9D9D9" stroke-miterlimit="10"/>
<path opacity="0.2" d="M624.085 838.464L759.987 887.997L895.804 838.498" stroke="#D9D9D9" stroke-miterlimit="10"/>
<path opacity="0.2" d="M759.86 889.047V1084.81" stroke="#D9D9D9" stroke-miterlimit="10"/>
<path opacity="0.2" d="M809 393.31L809.085 196.465L944.987 147L1080.8 196.499L1080.89 393.276L944.987 442.809L809 393.31Z" stroke="#D9D9D9" stroke-miterlimit="10"/>
<path opacity="0.2" d="M809.085 196.464L944.987 245.997L1080.8 196.498" stroke="#D9D9D9" stroke-miterlimit="10"/>
<path opacity="0.2" d="M944.86 247.047V442.807" stroke="#D9D9D9" stroke-miterlimit="10"/>
<path opacity="0.2" d="M352 443.469L352.085 246.497L488.043 197L623.915 246.531L624 443.435L488.043 493L352 443.469Z" stroke="#D9D9D9" stroke-miterlimit="10"/>
<path opacity="0.2" d="M352.085 246.496L488.042 296.061L623.915 246.53" stroke="#D9D9D9" stroke-miterlimit="10"/>
<path opacity="0.2" d="M487.915 297.111V492.998" stroke="#D9D9D9" stroke-miterlimit="10"/>
<path opacity="0.2" d="M488 196.469L488.085 -0.502807L624.043 -50L759.915 -0.46879L760 196.435L624.043 246L488 196.469Z" stroke="#D9D9D9" stroke-miterlimit="10"/>
<path opacity="0.2" d="M488.085 -0.503906L624.043 49.0613L759.915 -0.469887" stroke="#D9D9D9" stroke-miterlimit="10"/>
<path opacity="0.2" d="M623.915 50.1113V245.998" stroke="#D9D9D9" stroke-miterlimit="10"/>
<path opacity="0.2" d="M-192 838.31L-191.915 641.465L-56.013 592L79.8041 641.499L79.8891 838.276L-56.013 887.809L-192 838.31Z" stroke="#D9D9D9" stroke-miterlimit="10"/>
<path opacity="0.2" d="M-191.915 641.464L-56.013 690.997L79.8041 641.498" stroke="#D9D9D9" stroke-miterlimit="10"/>
<path opacity="0.2" d="M1217.11 442.337L1217.2 245.493L1353.1 196.027L1488.91 245.527L1489 442.303L1353.1 491.837L1217.11 442.337Z" stroke="#D9D9D9" stroke-miterlimit="10"/>
<path opacity="0.2" d="M1217.2 245.491L1353.1 295.024L1488.91 245.525" stroke="#D9D9D9" stroke-miterlimit="10"/>
<path opacity="0.2" d="M1352.97 296.074V491.834" stroke="#D9D9D9" stroke-miterlimit="10"/>
<path opacity="0.2" d="M1081 196.31L1081.08 -0.534711L1216.99 -50L1352.8 -0.500716L1352.89 196.276L1216.99 245.809L1081 196.31Z" stroke="#D9D9D9" stroke-miterlimit="10"/>
<path opacity="0.2" d="M1081.08 -0.536133L1216.99 48.9971L1352.8 -0.502135" stroke="#D9D9D9" stroke-miterlimit="10"/>
<path opacity="0.2" d="M1216.86 50.0469V245.807" stroke="#D9D9D9" stroke-miterlimit="10"/>
<path opacity="0.2" d="M1494.78 820.023V1018.21L1222.68 1117.09L951 1018.21V820.16L1222.68 721L1494.78 820.023Z" stroke="#D9D9D9" stroke-miterlimit="10" stroke-linecap="round" stroke-linejoin="round"/>
<path opacity="0.2" d="M1222.68 919.047V1117.09" stroke="#D9D9D9" stroke-miterlimit="10" stroke-linecap="round" stroke-linejoin="round"/>
<path opacity="0.2" d="M951 820.16L1222.68 919.047L1494.78 820.023" stroke="#D9D9D9" stroke-miterlimit="10" stroke-linecap="round" stroke-linejoin="round"/>
<path opacity="0.2" d="M1087 869.31L1087.08 672.465L1222.99 623L1358.8 672.499L1358.89 869.276L1222.99 918.809L1087 869.31Z" fill="#5528FF" stroke="#D9D9D9" stroke-miterlimit="10"/>
<path opacity="0.2" d="M1087.08 672.464L1222.99 721.997L1358.8 672.498" stroke="#D9D9D9" stroke-miterlimit="10"/>
<path opacity="0.2" d="M1222.86 723.047V918.807" stroke="#D9D9D9" stroke-miterlimit="10"/>
</g>
<defs>
<clipPath id="clip0_4164_77816">
<rect width="1441" height="1042" fill="white"/>
</clipPath>
</defs>
</svg>
