<svg fill="none" height="83" viewBox="0 0 302 83" width="302" xmlns="http://www.w3.org/2000/svg"><g stroke-miterlimit="10"><g stroke="#7f7f7f"><path d="m1 68.6447.02344-54.2991 37.48826-13.644916 37.4649 13.654316.0234 54.2804-37.4883 13.6636z"/><path d="m1.02344 14.3452 37.48826 13.6637 37.4648-13.6543"/><path d="m38.4766 28.2983v54"/><path d="m76 68.6447.0234-54.2991 37.4886-13.644916 37.465 13.654316.023 54.2804-37.488 13.6636z"/><path d="m76.0234 14.3452 37.4886 13.6637 37.465-13.6543"/><path d="m113.477 28.2983v54"/></g><path d="m151 68.6447.023-54.2991 37.489-13.644916 37.465 13.654316.023 54.2804-37.488 13.6636z" stroke="#4c18db" stroke-dasharray="5 10"/><path d="m151.023 14.3452 37.489 13.6637 37.465-13.6543" stroke="#4c18db" stroke-dasharray="5 10"/><path d="m188.477 28.2983v54" stroke="#4c18db" stroke-dasharray="5 10"/><path d="m226 68.6447.023-54.2991 37.489-13.644916 37.465 13.654316.023 54.2804-37.488 13.6636z" stroke="#7f7f7f"/><path d="m226.023 14.3452 37.489 13.6637 37.465-13.6543" stroke="#7f7f7f"/><path d="m263.477 28.2983v54" stroke="#7f7f7f"/></g></svg>