<svg width="375" height="336" viewBox="0 0 375 336" fill="none" xmlns="http://www.w3.org/2000/svg">
<g clip-path="url(#clip0_4482_10911)">
<rect width="375" height="336" fill="#4C18DB"/>
<path d="M429.633 179.09L429.599 98.8059L374.833 78.7793L320.102 98.8197L320.067 179.077L374.833 199.131L429.633 179.09Z" fill="#4C18DB"/>
<path d="M429.633 179.09L429.599 98.8059L374.833 78.7793L320.102 98.8197L320.067 179.077L374.833 199.131L429.633 179.09Z" stroke="#5528FF" stroke-width="0.5" stroke-miterlimit="10"/>
<path d="M429.633 179.09L429.599 98.8059L374.833 78.7793L320.102 98.8197L320.067 179.077L374.833 199.131L429.633 179.09Z" stroke="white" stroke-opacity="0.5" stroke-width="0.5" stroke-miterlimit="10"/>
<path d="M429.598 98.8057L374.832 118.86L320.101 98.8194" stroke="#5528FF" stroke-width="0.5" stroke-miterlimit="10"/>
<path d="M429.598 98.8057L374.832 118.86L320.101 98.8194" stroke="white" stroke-opacity="0.5" stroke-width="0.5" stroke-miterlimit="10"/>
<path d="M374.833 118.86V199.131" stroke="#5528FF" stroke-width="0.5" stroke-miterlimit="10"/>
<path d="M374.833 118.86V199.131" stroke="white" stroke-opacity="0.5" stroke-width="0.5" stroke-miterlimit="10"/>
<path d="M484.699 198.982L484.665 158.959L429.899 138.955L375.168 158.973L375.134 198.968L429.899 219L484.699 198.982Z" fill="#4C18DB"/>
<path d="M484.699 198.982L484.665 158.959L429.899 138.955L375.168 158.973L375.134 198.968L429.899 219L484.699 198.982Z" stroke="#5528FF" stroke-width="0.5" stroke-miterlimit="10"/>
<path d="M484.699 198.982L484.665 158.959L429.899 138.955L375.168 158.973L375.134 198.968L429.899 219L484.699 198.982Z" stroke="white" stroke-opacity="0.5" stroke-width="0.5" stroke-miterlimit="10"/>
<path d="M375.134 40.0268L375.099 0.00436592L320.05 -20L265.035 0.018116L265.001 40.0131L320.05 60.045L375.134 40.0268Z" fill="#4C18DB"/>
<path d="M375.134 40.0268L375.099 0.00436592L320.05 -20L265.035 0.018116L265.001 40.0131L320.05 60.045L375.134 40.0268Z" stroke="#5528FF" stroke-width="0.5" stroke-miterlimit="10"/>
<path d="M375.134 40.0268L375.099 0.00436592L320.05 -20L265.035 0.018116L265.001 40.0131L320.05 60.045L375.134 40.0268Z" stroke="white" stroke-opacity="0.5" stroke-width="0.5" stroke-miterlimit="10"/>
<path d="M375.099 0.00390625L320.049 20.0358L265.034 0.0176553" stroke="#5528FF" stroke-width="0.5" stroke-miterlimit="10"/>
<path d="M375.099 0.00390625L320.049 20.0358L265.034 0.0176553" stroke="white" stroke-opacity="0.5" stroke-width="0.5" stroke-miterlimit="10"/>
<path d="M320.05 20.0361V60.0449" stroke="#5528FF" stroke-width="0.5" stroke-miterlimit="10"/>
<path d="M320.05 20.0361V60.0449" stroke="white" stroke-opacity="0.5" stroke-width="0.5" stroke-miterlimit="10"/>
<path d="M402.951 89.2419L402.934 49.5761L375.409 39.6084L347.902 49.5829L347.885 89.2351L375.409 99.2165L402.951 89.2419Z" fill="#4C18DB"/>
<path d="M402.951 89.2419L402.934 49.5761L375.409 39.6084L347.902 49.5829L347.885 89.2351L375.409 99.2165L402.951 89.2419Z" stroke="#5528FF" stroke-width="0.5" stroke-miterlimit="10"/>
<path d="M402.951 89.2419L402.934 49.5761L375.409 39.6084L347.902 49.5829L347.885 89.2351L375.409 99.2165L402.951 89.2419Z" stroke="white" stroke-opacity="0.5" stroke-width="0.5" stroke-miterlimit="10"/>
<path d="M402.934 49.5762L375.409 59.5575L347.902 49.583" stroke="#5528FF" stroke-width="0.5" stroke-miterlimit="10"/>
<path d="M402.934 49.5762L375.409 59.5575L347.902 49.583" stroke="white" stroke-opacity="0.5" stroke-width="0.5" stroke-miterlimit="10"/>
<path d="M375.134 99.4597L375.117 59.7938L347.592 49.8262L320.084 59.8007L320.067 99.4529L347.592 109.434L375.134 99.4597Z" fill="#4C18DB"/>
<path d="M375.134 99.4597L375.117 59.7938L347.592 49.8262L320.084 59.8007L320.067 99.4529L347.592 109.434L375.134 99.4597Z" stroke="#5528FF" stroke-width="0.5" stroke-miterlimit="10"/>
<path d="M375.134 99.4597L375.117 59.7938L347.592 49.8262L320.084 59.8007L320.067 99.4529L347.592 109.434L375.134 99.4597Z" stroke="white" stroke-opacity="0.5" stroke-width="0.5" stroke-miterlimit="10"/>
<path d="M375.116 59.7939L347.592 69.7753L320.084 59.8008" stroke="#5528FF" stroke-width="0.5" stroke-miterlimit="10"/>
<path d="M375.116 59.7939L347.592 69.7753L320.084 59.8008" stroke="white" stroke-opacity="0.5" stroke-width="0.5" stroke-miterlimit="10"/>
<path d="M347.618 69.9863V109.434" stroke="#5528FF" stroke-width="0.5" stroke-miterlimit="10"/>
<path d="M347.618 69.9863V109.434" stroke="white" stroke-opacity="0.5" stroke-width="0.5" stroke-miterlimit="10"/>
<path d="M109.133 396.09L109.167 315.806L163.933 295.779L218.664 315.82L218.698 396.077L163.933 416.131L109.133 396.09Z" fill="#4C18DB"/>
<path d="M109.133 396.09L109.167 315.806L163.933 295.779L218.664 315.82L218.698 396.077L163.933 416.131L109.133 396.09Z" stroke="#5528FF" stroke-width="0.5" stroke-miterlimit="10"/>
<path d="M109.133 396.09L109.167 315.806L163.933 295.779L218.664 315.82L218.698 396.077L163.933 416.131L109.133 396.09Z" stroke="white" stroke-opacity="0.5" stroke-width="0.5" stroke-miterlimit="10"/>
<path d="M109.168 315.806L163.934 335.86L218.665 315.819" stroke="#5528FF" stroke-width="0.5" stroke-miterlimit="10"/>
<path d="M109.168 315.806L163.934 335.86L218.665 315.819" stroke="white" stroke-opacity="0.5" stroke-width="0.5" stroke-miterlimit="10"/>
<path d="M163.933 335.86V416.131" stroke="#5528FF" stroke-width="0.5" stroke-miterlimit="10"/>
<path d="M163.933 335.86V416.131" stroke="white" stroke-opacity="0.5" stroke-width="0.5" stroke-miterlimit="10"/>
<path d="M-1 355.79L-0.965573 315.767L54.0837 295.763L109.099 315.781L109.133 355.776L54.0837 375.808L-1 355.79Z" fill="#4C18DB"/>
<path d="M-1 355.79L-0.965573 315.767L54.0837 295.763L109.099 315.781L109.133 355.776L54.0837 375.808L-1 355.79Z" stroke="#5528FF" stroke-width="0.5" stroke-miterlimit="10"/>
<path d="M-1 355.79L-0.965573 315.767L54.0837 295.763L109.099 315.781L109.133 355.776L54.0837 375.808L-1 355.79Z" stroke="white" stroke-opacity="0.5" stroke-width="0.5" stroke-miterlimit="10"/>
<path d="M-0.964844 315.767L54.0845 335.798L109.099 315.78" stroke="#5528FF" stroke-width="0.5" stroke-miterlimit="10"/>
<path d="M-0.964844 315.767L54.0845 335.798L109.099 315.78" stroke="white" stroke-opacity="0.5" stroke-width="0.5" stroke-miterlimit="10"/>
<path d="M54.084 335.799V375.808" stroke="#5528FF" stroke-width="0.5" stroke-miterlimit="10"/>
<path d="M54.084 335.799V375.808" stroke="white" stroke-opacity="0.5" stroke-width="0.5" stroke-miterlimit="10"/>
</g>
<defs>
<clipPath id="clip0_4482_10911">
<rect width="375" height="336" fill="white"/>
</clipPath>
</defs>
</svg>
