<svg width="1440" height="300" viewBox="0 0 1440 300" fill="none" xmlns="http://www.w3.org/2000/svg">
<g clip-path="url(#clip0_4465_6349)">
<rect width="1440" height="300" fill="#4C18DB"/>
<path d="M1441.87 370.701L1441.81 231.295L1346.71 196.521L1251.68 231.319L1251.62 370.677L1346.71 405.499L1441.87 370.701Z" fill="#4C18DB"/>
<path d="M1441.87 370.701L1441.81 231.295L1346.71 196.521L1251.68 231.319L1251.62 370.677L1346.71 405.499L1441.87 370.701Z" stroke="#5528FF" stroke-miterlimit="10"/>
<path d="M1441.87 370.701L1441.81 231.295L1346.71 196.521L1251.68 231.319L1251.62 370.677L1346.71 405.499L1441.87 370.701Z" stroke="white" stroke-opacity="0.5" stroke-miterlimit="10"/>
<path d="M1441.81 231.294L1346.71 266.116L1251.68 231.318" stroke="#5528FF" stroke-miterlimit="10"/>
<path d="M1441.81 231.294L1346.71 266.116L1251.68 231.318" stroke="white" stroke-opacity="0.5" stroke-miterlimit="10"/>
<path d="M1346.71 266.117V405.499" stroke="#5528FF" stroke-miterlimit="10"/>
<path d="M1346.71 266.117V405.499" stroke="white" stroke-opacity="0.5" stroke-miterlimit="10"/>
<path d="M1347.24 129.231L1347.18 59.7356L1251.59 25L1156.06 59.7595L1156 129.207L1251.59 163.99L1347.24 129.231Z" fill="#4C18DB"/>
<path d="M1347.24 129.231L1347.18 59.7356L1251.59 25L1156.06 59.7595L1156 129.207L1251.59 163.99L1347.24 129.231Z" stroke="#5528FF" stroke-miterlimit="10"/>
<path d="M1347.24 129.231L1347.18 59.7356L1251.59 25L1156.06 59.7595L1156 129.207L1251.59 163.99L1347.24 129.231Z" stroke="white" stroke-opacity="0.5" stroke-miterlimit="10"/>
<path d="M1347.17 59.7354L1251.59 94.5187L1156.06 59.7592" stroke="#5528FF" stroke-miterlimit="10"/>
<path d="M1347.17 59.7354L1251.59 94.5187L1156.06 59.7592" stroke="white" stroke-opacity="0.5" stroke-miterlimit="10"/>
<path d="M1251.59 94.5195V163.991" stroke="#5528FF" stroke-miterlimit="10"/>
<path d="M1251.59 94.5195V163.991" stroke="white" stroke-opacity="0.5" stroke-miterlimit="10"/>
<path d="M1395.54 214.688L1395.51 145.812L1347.71 128.504L1299.95 145.824L1299.92 214.676L1347.71 232.007L1395.54 214.688Z" fill="#4C18DB"/>
<path d="M1395.54 214.688L1395.51 145.812L1347.71 128.504L1299.95 145.824L1299.92 214.676L1347.71 232.007L1395.54 214.688Z" stroke="#5528FF" stroke-miterlimit="10"/>
<path d="M1395.54 214.688L1395.51 145.812L1347.71 128.504L1299.95 145.824L1299.92 214.676L1347.71 232.007L1395.54 214.688Z" stroke="white" stroke-opacity="0.5" stroke-miterlimit="10"/>
<path d="M1395.51 145.812L1347.71 163.143L1299.95 145.823" stroke="#5528FF" stroke-miterlimit="10"/>
<path d="M1395.51 145.812L1347.71 163.143L1299.95 145.823" stroke="white" stroke-opacity="0.5" stroke-miterlimit="10"/>
<path d="M1347.76 163.51V232.006" stroke="#5528FF" stroke-miterlimit="10"/>
<path d="M1347.76 163.51V232.006" stroke="white" stroke-opacity="0.5" stroke-miterlimit="10"/>
<path d="M1347.24 232.431L1347.21 163.555L1299.41 146.247L1251.65 163.567L1251.62 232.419L1299.41 249.751L1347.24 232.431Z" fill="#4C18DB"/>
<path d="M1347.24 232.431L1347.21 163.555L1299.41 146.247L1251.65 163.567L1251.62 232.419L1299.41 249.751L1347.24 232.431Z" stroke="#5528FF" stroke-miterlimit="10"/>
<path d="M1347.24 232.431L1347.21 163.555L1299.41 146.247L1251.65 163.567L1251.62 232.419L1299.41 249.751L1347.24 232.431Z" stroke="white" stroke-opacity="0.5" stroke-miterlimit="10"/>
<path d="M1347.21 163.555L1299.41 180.886L1251.65 163.567" stroke="#5528FF" stroke-miterlimit="10"/>
<path d="M1347.21 163.555L1299.41 180.886L1251.65 163.567" stroke="white" stroke-opacity="0.5" stroke-miterlimit="10"/>
<path d="M1299.46 181.253V249.749" stroke="#5528FF" stroke-miterlimit="10"/>
<path d="M1299.46 181.253V249.749" stroke="white" stroke-opacity="0.5" stroke-miterlimit="10"/>
<path d="M92.8662 335.701L92.8067 196.295L-2.28827 161.521L-97.3238 196.319L-97.3832 335.677L-2.28823 370.499L92.8662 335.701Z" fill="#4C18DB"/>
<path d="M92.8662 335.701L92.8067 196.295L-2.28827 161.521L-97.3238 196.319L-97.3832 335.677L-2.28823 370.499L92.8662 335.701Z" stroke="#5528FF" stroke-miterlimit="10"/>
<path d="M92.8662 335.701L92.8067 196.295L-2.28827 161.521L-97.3238 196.319L-97.3832 335.677L-2.28823 370.499L92.8662 335.701Z" stroke="white" stroke-opacity="0.5" stroke-miterlimit="10"/>
<path d="M92.8057 196.294L-2.28931 231.116L-97.3248 196.318" stroke="#5528FF" stroke-miterlimit="10"/>
<path d="M92.8057 196.294L-2.28931 231.116L-97.3248 196.318" stroke="white" stroke-opacity="0.5" stroke-miterlimit="10"/>
<path d="M188.484 370.24L188.425 300.745L93.3299 266.01L-1.70555 300.769L-1.76503 370.217L93.3299 405L188.484 370.24Z" fill="#4C18DB"/>
<path d="M188.484 370.24L188.425 300.745L93.3299 266.01L-1.70555 300.769L-1.76503 370.217L93.3299 405L188.484 370.24Z" stroke="#5528FF" stroke-miterlimit="10"/>
<path d="M188.484 370.24L188.425 300.745L93.3299 266.01L-1.70555 300.769L-1.76503 370.217L93.3299 405L188.484 370.24Z" stroke="white" stroke-opacity="0.5" stroke-miterlimit="10"/>
<path d="M284.102 265.751L284.042 196.256L188.454 161.521L92.9262 196.28L92.8664 265.727L188.454 300.511L284.102 265.751Z" fill="#4C18DB"/>
<path d="M284.102 265.751L284.042 196.256L188.454 161.521L92.9262 196.28L92.8664 265.727L188.454 300.511L284.102 265.751Z" stroke="#5528FF" stroke-miterlimit="10"/>
<path d="M284.102 265.751L284.042 196.256L188.454 161.521L92.9262 196.28L92.8664 265.727L188.454 300.511L284.102 265.751Z" stroke="white" stroke-opacity="0.5" stroke-miterlimit="10"/>
<path d="M284.041 196.256L188.453 231.039L92.9254 196.28" stroke="#5528FF" stroke-miterlimit="10"/>
<path d="M284.041 196.256L188.453 231.039L92.9254 196.28" stroke="white" stroke-opacity="0.5" stroke-miterlimit="10"/>
<path d="M188.454 231.04V300.511" stroke="#5528FF" stroke-miterlimit="10"/>
<path d="M188.454 231.04V300.511" stroke="white" stroke-opacity="0.5" stroke-miterlimit="10"/>
<path d="M46.5361 179.688L46.5062 110.812L-1.2876 93.5039L-49.0516 110.824L-49.0814 179.676L-1.2876 197.007L46.5361 179.688Z" fill="#4C18DB"/>
<path d="M46.5361 179.688L46.5062 110.812L-1.2876 93.5039L-49.0516 110.824L-49.0814 179.676L-1.2876 197.007L46.5361 179.688Z" stroke="#5528FF" stroke-miterlimit="10"/>
<path d="M46.5361 179.688L46.5062 110.812L-1.2876 93.5039L-49.0516 110.824L-49.0814 179.676L-1.2876 197.007L46.5361 179.688Z" stroke="white" stroke-opacity="0.5" stroke-miterlimit="10"/>
<path d="M46.5059 110.812L-1.28799 128.143L-49.0519 110.823" stroke="#5528FF" stroke-miterlimit="10"/>
<path d="M46.5059 110.812L-1.28799 128.143L-49.0519 110.823" stroke="white" stroke-opacity="0.5" stroke-miterlimit="10"/>
</g>
<defs>
<clipPath id="clip0_4465_6349">
<rect width="1440" height="300" fill="white"/>
</clipPath>
</defs>
</svg>
