<svg width="216" height="156" viewBox="0 0 216 156" fill="none" xmlns="http://www.w3.org/2000/svg">
<path d="M56.536 123.221L0.625 102.869L0.659967 21.3376L56.536 1L112.377 21.3516L112.404 82.9772" stroke="#7F7F7F" stroke-miterlimit="10"/>
<path d="M0.6604 21.3374L56.5365 41.703L112.378 21.3514" stroke="#7F7F7F" stroke-miterlimit="10"/>
<path d="M56.5361 41.7036V123.221" stroke="#7F7F7F" stroke-miterlimit="10"/>
<path d="M84.8379 133.571L84.8728 92.8816L140.749 72.5439L196.59 92.8956L196.625 133.557L140.749 153.922L84.8379 133.571Z" stroke="#7F7F7F" stroke-miterlimit="10"/>
<path d="M84.8735 92.8813L140.75 113.247L196.591 92.8953" stroke="#7F7F7F" stroke-miterlimit="10"/>
<path d="M140.749 113.248V153.923" stroke="#7F7F7F" stroke-miterlimit="10"/>
<path d="M112.395 82.7197L84.4741 72.5439L56.536 82.7128L56.5186 123.179L84.4741 133.355" stroke="#7F7F7F" stroke-miterlimit="10"/>
<path d="M56.5361 82.7124L84.4742 92.8952L112.395 82.7194" stroke="#7F7F7F" stroke-miterlimit="10"/>
<rect x="171.375" y="112" width="43" height="43" rx="21.5" fill="white"/>
<path d="M192.875 113C181.554 113 172.375 122.179 172.375 133.5C172.375 144.821 181.554 154 192.875 154C204.196 154 213.375 144.821 213.375 133.5C213.375 122.179 204.196 113 192.875 113ZM201.729 126.805L192.093 140.167C191.958 140.355 191.78 140.508 191.575 140.614C191.369 140.72 191.141 140.775 190.91 140.775C190.678 140.775 190.45 140.72 190.245 140.614C190.039 140.508 189.861 140.355 189.727 140.167L184.021 132.26C183.847 132.017 184.021 131.679 184.318 131.679H186.464C186.931 131.679 187.375 131.903 187.649 132.287L190.907 136.808L198.101 126.833C198.375 126.453 198.815 126.224 199.286 126.224H201.432C201.729 126.224 201.903 126.563 201.729 126.805Z" fill="#00BB99"/>
<rect x="171.375" y="112" width="43" height="43" rx="21.5" stroke="white" stroke-width="2"/>
</svg>
