<svg width="20" height="20" viewBox="0 0 20 20" fill="none" xmlns="http://www.w3.org/2000/svg">
<path d="M16.369 15.3742C16.3727 15.3686 16.3783 15.363 16.382 15.3575C17.6004 13.9084 18.3333 12.0409 18.3333 10.0003C18.3333 7.95978 17.6004 6.09222 16.3839 4.64318C16.3802 4.6376 16.3746 4.63388 16.3709 4.6283C16.3504 4.60412 16.3318 4.5818 16.3113 4.55948C16.3039 4.55018 16.2965 4.54274 16.289 4.53344L16.2128 4.44601L16.2109 4.44415C16.183 4.41253 16.1532 4.38091 16.1253 4.34928L16.1235 4.34742C16.0639 4.28418 16.0044 4.22094 15.943 4.15955L15.9412 4.15769L15.8519 4.06841L15.8463 4.06283C15.8184 4.03492 15.7905 4.00888 15.7626 3.98284C15.7533 3.97354 15.744 3.96424 15.7328 3.95494C15.7142 3.93634 15.6956 3.9196 15.677 3.90286C15.6715 3.89727 15.664 3.89169 15.6584 3.88425C14.1741 2.50777 12.1856 1.66699 9.99996 1.66699C7.81432 1.66699 5.82585 2.50777 4.33962 3.88425C4.33404 3.88983 4.3266 3.89541 4.32102 3.90286C4.30241 3.9196 4.28381 3.9382 4.26521 3.9568C4.25591 3.9661 4.24661 3.9754 4.23545 3.9847C4.20755 4.01074 4.17965 4.03864 4.15175 4.06469L4.14616 4.07027L4.05688 4.15955L4.05502 4.16141C3.99363 4.2228 3.93411 4.28604 3.87459 4.34928L3.87273 4.35114C3.84297 4.38277 3.81506 4.41439 3.78716 4.44601L3.7853 4.44787C3.75926 4.47577 3.73322 4.50553 3.70904 4.5353C3.7016 4.5446 3.69416 4.55204 3.68672 4.56134C3.66625 4.58366 3.64765 4.60784 3.62719 4.63016C3.62347 4.63574 3.61789 4.63946 3.61417 4.64504C2.39951 6.09222 1.66663 7.95978 1.66663 10.0003C1.66663 12.0409 2.39951 13.9084 3.61603 15.3575C3.61975 15.363 3.62533 15.3686 3.62905 15.3742L3.68672 15.443C3.69416 15.4523 3.7016 15.4598 3.70904 15.4691L3.7853 15.5565L3.78716 15.5602C3.81506 15.5918 3.84297 15.6235 3.87273 15.6532L3.87459 15.6551C3.93411 15.7183 3.99363 15.7816 4.05316 15.843L4.05502 15.8448C4.08478 15.8746 4.11268 15.9043 4.14244 15.9322L4.14802 15.9378C4.20941 15.9992 4.27265 16.0587 4.3359 16.1164C5.82585 17.4929 7.81432 18.3337 9.99996 18.3337C12.1856 18.3337 14.1741 17.4929 15.6603 16.1164C15.7237 16.0583 15.7857 15.9988 15.8463 15.9378L15.8519 15.9322C15.8817 15.9025 15.9114 15.8746 15.9393 15.8448L15.9412 15.843C16.0026 15.7816 16.0621 15.7183 16.1198 15.6551L16.1216 15.6532C16.1495 15.6216 16.1793 15.5918 16.2072 15.5602L16.209 15.5565C16.2351 15.5286 16.2611 15.4988 16.2853 15.4691C16.2927 15.4598 16.3002 15.4523 16.3076 15.443C16.3287 15.4206 16.3491 15.3977 16.369 15.3742ZM16.4453 12.7217C16.1886 13.3281 15.85 13.8898 15.4371 14.3995C14.972 13.9976 14.4635 13.6488 13.9211 13.3597C14.1369 12.4873 14.2708 11.5293 14.3061 10.5212H16.9754C16.9196 11.2819 16.741 12.0204 16.4453 12.7217ZM16.9754 9.47949H14.3061C14.2708 8.47131 14.1369 7.51335 13.9211 6.64095C14.4661 6.35077 14.9739 6.00107 15.4371 5.60114C16.3347 6.70601 16.8717 8.05973 16.9754 9.47949ZM12.7213 3.55501C13.4598 3.86751 14.1313 4.29906 14.7228 4.84222C14.3792 5.1348 14.0093 5.39508 13.6179 5.61975C13.3259 4.78269 12.952 4.05539 12.5167 3.47317C12.5855 3.49921 12.6543 3.52711 12.7213 3.55501ZM11.036 16.587C10.8649 16.7209 10.6938 16.8232 10.5208 16.8921V13.4415C11.2589 13.493 11.9847 13.6574 12.673 13.9289C12.5186 14.3865 12.34 14.8087 12.1335 15.1901C11.8099 15.7927 11.4304 16.2745 11.036 16.587ZM12.1335 4.81059C12.3381 5.19378 12.5186 5.61602 12.673 6.07175C11.9847 6.34325 11.2589 6.50761 10.5208 6.55911V3.11044C10.6919 3.17927 10.8649 3.27972 11.036 3.4155C11.4304 3.72614 11.8099 4.20791 12.1335 4.81059ZM10.5208 12.398V10.5212H13.2645C13.2347 11.3433 13.1324 12.1413 12.9613 12.8984L12.9557 12.9207C12.1751 12.6247 11.3541 12.4485 10.5208 12.398ZM10.5208 9.47949V7.60263C11.3727 7.55055 12.1912 7.37012 12.9557 7.07994L12.9613 7.10226C13.1324 7.85933 13.2347 8.65546 13.2645 9.47949H10.5208ZM9.47913 10.5212V12.398C8.62719 12.4501 7.80874 12.6305 7.04423 12.9207L7.03865 12.8984C6.86752 12.1413 6.76521 11.3452 6.73545 10.5212H9.47913ZM6.73545 9.47949C6.76521 8.65732 6.86752 7.85933 7.03865 7.10226L7.04423 7.07994C7.80874 7.37012 8.62533 7.55055 9.47913 7.60263V9.47949H6.73545ZM9.47913 13.4415V16.8902C9.308 16.8214 9.135 16.7209 8.96387 16.5851C8.56953 16.2745 8.1882 15.7909 7.86454 15.1882C7.65993 14.805 7.4795 14.3828 7.32511 13.927C8.01707 13.6555 8.73694 13.4936 9.47913 13.4415ZM9.47913 6.55911C8.74105 6.50761 8.01523 6.34325 7.32697 6.07175C7.48136 5.61416 7.65993 5.19192 7.8664 4.81059C8.19006 4.20791 8.56953 3.72428 8.96573 3.41364C9.13686 3.27972 9.308 3.17741 9.48099 3.10858V6.55911H9.47913ZM7.27861 3.55501C7.34743 3.52711 7.41439 3.49921 7.48322 3.47317C7.04795 4.05539 6.67407 4.78269 6.38203 5.61975C5.9914 5.39653 5.62124 5.13611 5.27712 4.84222C5.86864 4.29906 6.54014 3.86751 7.27861 3.55501ZM3.55465 7.27897C3.81134 6.67257 4.14988 6.11082 4.56283 5.60114C5.026 6.00107 5.53381 6.35077 6.07883 6.64095C5.86305 7.51335 5.72913 8.47131 5.69378 9.47949H3.02451C3.08032 8.7187 3.25889 7.98024 3.55465 7.27897ZM3.02451 10.5212H5.69378C5.72913 11.5293 5.86305 12.4873 6.07883 13.3597C5.53638 13.6488 5.0279 13.9976 4.56283 14.3995C3.66519 13.2946 3.12825 11.9409 3.02451 10.5212ZM7.27861 16.4456C6.54014 16.1331 5.86864 15.7016 5.27712 15.1584C5.62124 14.8645 5.9914 14.606 6.38203 14.3809C6.67407 15.218 7.04795 15.9453 7.48322 16.5275C7.41439 16.5014 7.34557 16.4735 7.27861 16.4456ZM12.7213 16.4456C12.6525 16.4735 12.5855 16.5014 12.5167 16.5275C12.952 15.9453 13.3259 15.218 13.6179 14.3809C14.0085 14.6041 14.3787 14.8645 14.7228 15.1584C14.1346 15.6993 13.4575 16.1348 12.7213 16.4456Z" fill="white"/>
</svg>
