<svg width="21" height="21" viewBox="0 0 21 21" fill="none" xmlns="http://www.w3.org/2000/svg">
<path d="M16.8691 15.7199C16.8728 15.7143 16.8784 15.7088 16.8821 15.7032C18.1005 14.2541 18.8333 12.3866 18.8333 10.346C18.8333 8.30548 18.1005 6.43792 16.8839 4.98889C16.8802 4.98331 16.8746 4.97959 16.8709 4.974C16.8505 4.94982 16.8319 4.9275 16.8114 4.90518C16.8039 4.89588 16.7965 4.88844 16.7891 4.87914L16.7128 4.79171L16.7109 4.78985C16.683 4.75823 16.6533 4.72661 16.6254 4.69499L16.6235 4.69313C16.564 4.62988 16.5045 4.56664 16.4431 4.50525L16.4412 4.50339L16.3519 4.41411L16.3464 4.40853C16.3185 4.38063 16.2906 4.35459 16.2627 4.32854C16.2534 4.31924 16.2441 4.30994 16.2329 4.30064C16.2143 4.28204 16.1957 4.2653 16.1771 4.24856C16.1715 4.24298 16.1641 4.2374 16.1585 4.22996C14.6741 2.85347 12.6856 2.0127 10.5 2.0127C8.31437 2.0127 6.3259 2.85347 4.83966 4.22996C4.83408 4.23554 4.82664 4.24112 4.82106 4.24856C4.80246 4.2653 4.78386 4.2839 4.76526 4.3025C4.75596 4.3118 4.74666 4.3211 4.7355 4.3304C4.70759 4.35645 4.67969 4.38435 4.65179 4.41039L4.64621 4.41597L4.55692 4.50525L4.55506 4.50712C4.49368 4.5685 4.43416 4.63174 4.37463 4.69499L4.37277 4.69685C4.34301 4.72847 4.31511 4.76009 4.28721 4.79171L4.28535 4.79357C4.25931 4.82148 4.23326 4.85124 4.20908 4.881C4.20164 4.8903 4.1942 4.89774 4.18676 4.90704C4.1663 4.92936 4.1477 4.95354 4.12724 4.97587C4.12352 4.98145 4.11794 4.98517 4.11422 4.99075C2.89956 6.43792 2.16667 8.30548 2.16667 10.346C2.16667 12.3866 2.89956 14.2541 4.11608 15.7032C4.1198 15.7088 4.12538 15.7143 4.1291 15.7199L4.18676 15.7887C4.1942 15.798 4.20164 15.8055 4.20908 15.8148L4.28535 15.9022L4.28721 15.9059C4.31511 15.9375 4.34301 15.9692 4.37277 15.9989L4.37463 16.0008C4.43416 16.064 4.49368 16.1273 4.5532 16.1887L4.55506 16.1905C4.58483 16.2203 4.61273 16.25 4.64249 16.2779L4.64807 16.2835C4.70945 16.3449 4.7727 16.4044 4.83594 16.4621C6.3259 17.8386 8.31437 18.6794 10.5 18.6794C12.6856 18.6794 14.6741 17.8386 16.1603 16.4621C16.2237 16.404 16.2857 16.3445 16.3464 16.2835L16.3519 16.2779C16.3817 16.2482 16.4115 16.2203 16.4394 16.1905L16.4412 16.1887C16.5026 16.1273 16.5621 16.064 16.6198 16.0008L16.6217 15.9989C16.6496 15.9673 16.6793 15.9375 16.7072 15.9059L16.7091 15.9022C16.7351 15.8743 16.7612 15.8445 16.7853 15.8148C16.7928 15.8055 16.8002 15.798 16.8077 15.7887C16.8287 15.7663 16.8492 15.7434 16.8691 15.7199ZM16.9453 13.0674C16.6886 13.6738 16.3501 14.2355 15.9371 14.7452C15.4721 14.3433 14.9636 13.9945 14.4211 13.7054C14.6369 12.833 14.7708 11.875 14.8062 10.8669H17.4755C17.4196 11.6277 17.2411 12.3661 16.9453 13.0674ZM17.4755 9.8252H14.8062C14.7708 8.81701 14.6369 7.85905 14.4211 6.98665C14.9662 6.69648 15.474 6.34677 15.9371 5.94685C16.8348 7.05171 17.3717 8.40544 17.4755 9.8252ZM13.2214 3.90072C13.9598 4.21322 14.6313 4.64476 15.2228 5.18792C14.8792 5.4805 14.5094 5.74078 14.1179 5.96545C13.8259 5.1284 13.452 4.40109 13.0167 3.81887C13.0856 3.84491 13.1544 3.87281 13.2214 3.90072ZM11.5361 16.9327C11.365 17.0666 11.1938 17.1689 11.0208 17.2378V13.7872C11.7589 13.8387 12.4847 14.0031 13.173 14.2746C13.0186 14.7322 12.84 15.1544 12.6336 15.5358C12.3099 16.1384 11.9304 16.6202 11.5361 16.9327ZM12.6336 5.1563C12.8382 5.53948 13.0186 5.96173 13.173 6.41746C12.4847 6.68895 11.7589 6.85331 11.0208 6.90481V3.45615C11.192 3.52497 11.365 3.62542 11.5361 3.76121C11.9304 4.07185 12.3099 4.55362 12.6336 5.1563ZM11.0208 12.7437V10.8669H13.7645C13.7348 11.689 13.6324 12.487 13.4613 13.2441L13.4557 13.2664C12.6751 12.9704 11.8542 12.7942 11.0208 12.7437ZM11.0208 9.8252V7.94834C11.8728 7.89625 12.6912 7.71582 13.4557 7.42564L13.4613 7.44796C13.6324 8.20503 13.7348 9.00116 13.7645 9.8252H11.0208ZM9.97917 10.8669V12.7437C9.12724 12.7958 8.30879 12.9762 7.54428 13.2664L7.5387 13.2441C7.36756 12.487 7.26526 11.6909 7.2355 10.8669H9.97917ZM7.2355 9.8252C7.26526 9.00302 7.36756 8.20503 7.5387 7.44796L7.54428 7.42564C8.30879 7.71582 9.12538 7.89625 9.97917 7.94834V9.8252H7.2355ZM9.97917 13.7872V17.2359C9.80804 17.1671 9.63505 17.0666 9.46392 16.9309C9.06957 16.6202 8.68825 16.1366 8.36459 15.5339C8.15998 15.1507 7.97954 14.7285 7.82515 14.2727C8.51712 14.0012 9.23698 13.8393 9.97917 13.7872ZM9.97917 6.90481C9.24109 6.85331 8.51527 6.68895 7.82701 6.41746C7.9814 5.95987 8.15998 5.53762 8.36645 5.1563C8.69011 4.55362 9.06957 4.06999 9.46578 3.75935C9.63691 3.62542 9.80804 3.52311 9.98103 3.45429V6.90481H9.97917ZM7.77865 3.90072C7.84748 3.87281 7.91444 3.84491 7.98326 3.81887C7.548 4.40109 7.17411 5.1284 6.88207 5.96545C6.49145 5.74223 6.12128 5.48182 5.77716 5.18792C6.36868 4.64476 7.04018 4.21322 7.77865 3.90072ZM4.05469 7.62468C4.31139 7.01828 4.64993 6.45652 5.06288 5.94685C5.52605 6.34677 6.03386 6.69648 6.57887 6.98665C6.3631 7.85905 6.22917 8.81701 6.19383 9.8252H3.52456C3.58036 9.06441 3.75893 8.32594 4.05469 7.62468ZM3.52456 10.8669H6.19383C6.22917 11.875 6.3631 12.833 6.57887 13.7054C6.03643 13.9945 5.52795 14.3433 5.06288 14.7452C4.16524 13.6403 3.62829 12.2866 3.52456 10.8669ZM7.77865 16.7913C7.04018 16.4788 6.36868 16.0473 5.77716 15.5041C6.12128 15.2102 6.49145 14.9517 6.88207 14.7266C7.17411 15.5637 7.548 16.291 7.98326 16.8732C7.91444 16.8471 7.84562 16.8192 7.77865 16.7913ZM13.2214 16.7913C13.1525 16.8192 13.0856 16.8471 13.0167 16.8732C13.452 16.291 13.8259 15.5637 14.1179 14.7266C14.5086 14.9498 14.8787 15.2102 15.2228 15.5041C14.6346 16.045 13.9575 16.4805 13.2214 16.7913Z" fill="white"/>
</svg>
