<svg width="21" height="21" viewBox="0 0 21 21" fill="none" xmlns="http://www.w3.org/2000/svg">
<path fill-rule="evenodd" clip-rule="evenodd" d="M4.625 4.7207H16.375C16.9273 4.7207 17.375 5.16842 17.375 5.7207V6.89875C17.375 7.09482 17.2604 7.27279 17.0819 7.35393L10.7069 10.2517C10.5754 10.3114 10.4246 10.3114 10.2931 10.2517L3.9181 7.35393C3.7396 7.27279 3.625 7.09482 3.625 6.89875V5.7207C3.625 5.16842 4.07272 4.7207 4.625 4.7207ZM16.375 15.3457H4.625C4.07272 15.3457 3.625 14.898 3.625 14.3457V9.4063C3.625 9.26085 3.77534 9.16404 3.90776 9.22423L10.2931 12.1267C10.4246 12.1864 10.5754 12.1864 10.7069 12.1267L17.0922 9.22423C17.2247 9.16404 17.375 9.26085 17.375 9.4063V14.3457C17.375 14.898 16.9273 15.3457 16.375 15.3457Z" fill="white"/>
</svg>
