<svg width="20" height="20" viewBox="0 0 20 20" fill="none" xmlns="http://www.w3.org/2000/svg">
<path fill-rule="evenodd" clip-rule="evenodd" d="M4.125 4.375H15.875C16.4273 4.375 16.875 4.82272 16.875 5.375V6.55304C16.875 6.74912 16.7604 6.92709 16.5819 7.00823L10.2069 9.90595C10.0754 9.96571 9.92456 9.96571 9.7931 9.90595L3.4181 7.00823C3.2396 6.92709 3.125 6.74911 3.125 6.55304V5.375C3.125 4.82272 3.57272 4.375 4.125 4.375ZM15.875 15H4.125C3.57272 15 3.125 14.5522 3.125 14V9.0606C3.125 8.91514 3.27534 8.81834 3.40776 8.87853L9.7931 11.781C9.92456 11.8407 10.0754 11.8407 10.2069 11.781L16.5922 8.87853C16.7247 8.81834 16.875 8.91514 16.875 9.0606V14C16.875 14.5523 16.4273 15 15.875 15Z" fill="white"/>
</svg>
