<svg width="68" height="24" viewBox="0 0 68 24" fill="none" xmlns="http://www.w3.org/2000/svg">
<path d="M23.6463 0.991489L18.8861 3.74026C18.2419 4.11249 17.8449 4.79968 17.8449 5.54349V18.9769C17.8449 19.7207 18.2419 20.4086 18.8861 20.7802L23.6463 23.5289C24.7337 24.1569 26.073 24.1569 27.1604 23.5289L32.013 20.7268C32.6573 20.3546 33.0542 19.6674 33.0542 18.9236V5.59685C33.0542 4.85304 32.6573 4.1652 32.013 3.79362L27.1604 0.991489C26.073 0.364165 24.7331 0.364165 23.6463 0.991489ZM29.7979 17.5954C29.7979 17.9533 29.5441 18.3926 29.2343 18.5715L25.9669 20.458C25.6572 20.637 25.1496 20.637 24.8398 20.458L21.6648 18.6249C21.3551 18.4459 21.1013 18.0067 21.1013 17.6487V6.87232C21.1013 6.51441 21.3551 6.07515 21.6648 5.89619L24.8398 4.06303C25.1496 3.88407 25.6572 3.88407 25.9669 4.06303L29.2343 5.94956C29.5441 6.12851 29.7979 6.56777 29.7979 6.92568V17.5954Z" fill="white"/>
<path d="M13.7289 12.1415C13.4191 11.9626 13.4191 11.6697 13.7289 11.4908L14.6829 10.9403C14.9926 10.7613 15.2464 10.322 15.2464 9.96413V5.07699C15.2464 4.33318 14.8495 3.64534 14.2052 3.27376L9.35193 0.470981C8.26453 -0.156994 6.92529 -0.156994 5.83788 0.470981L1.0412 3.24057C0.396958 3.6128 0 4.3 0 5.0438V18.9289C0 19.6727 0.396958 20.3605 1.0412 20.7321L5.88474 23.5284C6.97214 24.1563 8.31138 24.1563 9.39879 23.5284L14.9256 20.3377C15.5699 19.9655 15.9668 19.2783 15.9668 18.5345V14.0834C15.9668 13.7255 15.713 13.2862 15.4033 13.1073L13.7289 12.1415ZM3.41774 5.62883L7.03136 3.54252C7.34112 3.36357 7.8487 3.36357 8.15846 3.54252L11.4265 5.42905C11.7363 5.608 11.9901 6.04726 11.9901 6.40517V8.08346C11.9901 8.44137 11.7363 8.88063 11.4265 9.05959L10.4725 9.61012C10.1628 9.78908 9.65518 9.78908 9.34543 9.61012L3.41774 6.18847C3.31753 6.13056 3.25636 6.02383 3.25636 5.90865C3.25636 5.79282 3.31818 5.68675 3.41774 5.62883ZM12.7105 17.2063C12.7105 17.5642 12.4567 18.0035 12.1469 18.1825L8.20596 20.4581C7.89621 20.6371 7.38862 20.6371 7.07886 20.4581L3.8199 18.5768C3.51015 18.3979 3.25636 17.9586 3.25636 17.6007V10.5062C3.25636 10.1483 3.51015 10.0019 3.8199 10.1808L12.1463 14.9879C12.456 15.1669 12.7098 15.6061 12.7098 15.964V17.2063H12.7105Z" fill="white"/>
<path d="M52.5884 5.78536C52.2786 5.60641 52.0249 5.75282 52.0249 6.11074V8.52242C52.0249 9.26623 52.4218 9.95407 53.0661 10.3256L63.4052 16.295C63.7149 16.4739 63.9687 16.9132 63.9687 17.2711V17.6212C63.9687 17.9791 63.7149 18.4184 63.4052 18.5973L60.1833 20.4572C59.8736 20.6361 59.366 20.6361 59.0562 20.4572L52.5877 16.7225C52.278 16.5436 52.0242 16.69 52.0242 17.0479V18.9552C52.0242 19.6991 52.4212 20.3869 53.0654 20.7585L57.8627 23.5281C58.9501 24.156 60.2894 24.156 61.3768 23.5281L66.1839 20.7526C66.8281 20.3804 67.2251 19.6932 67.2251 18.9494V15.4373C67.2251 14.6935 66.8281 14.0056 66.1839 13.6341L52.5884 5.78536Z" fill="white"/>
<path d="M66.1845 4.35256L61.3931 1.58622C60.3056 0.958241 58.9664 0.958241 57.879 1.58622L56.9432 2.12634C56.6335 2.30529 56.6335 2.59813 56.9432 2.77709L66.6622 8.38851C66.9719 8.56747 67.2257 8.42105 67.2257 8.06313V6.15644C67.2257 5.41198 66.8288 4.72478 66.1845 4.35256Z" fill="white"/>
<path d="M41.9005 4.06303C42.2103 3.88407 42.7179 3.88407 43.0276 4.06303L49.5651 7.83738C49.8748 8.01634 50.1286 7.86992 50.1286 7.51201V5.60466C50.1286 4.86085 49.7317 4.17301 49.0874 3.80143L44.2211 0.991488C43.1337 0.363514 41.7945 0.363514 40.7071 0.991488L35.9689 3.72724C35.3247 4.09947 34.9277 4.78667 34.9277 5.53047V8.17187C34.9277 8.91568 35.3247 9.60352 35.9689 9.9751L46.3081 15.9444C46.6178 16.1234 46.8716 16.5626 46.8716 16.9206V17.5869C46.8716 17.9448 46.6178 18.3841 46.3081 18.5631L43.027 20.4574C42.7172 20.6363 42.2096 20.6363 41.8999 20.4574L35.4906 16.7572C35.1809 16.5783 34.9271 16.7247 34.9271 17.0826V18.9899C34.9271 19.7338 35.3241 20.4216 35.9683 20.7932L40.7064 23.5289C41.7938 24.1569 43.1331 24.1569 44.2205 23.5289L49.0868 20.719C49.731 20.3468 50.128 19.6596 50.128 18.9158V15.0874C50.128 14.3436 49.731 13.6557 49.0868 13.2842L38.7483 7.31483C38.4385 7.13587 38.1848 6.81375 38.1848 6.59901C38.1848 6.38426 38.4385 6.06214 38.7483 5.88318L41.9005 4.06303Z" fill="white"/>
</svg>
