<svg width="68" height="24" viewBox="0 0 68 24" fill="none" xmlns="http://www.w3.org/2000/svg">
<path d="M23.6471 0.991611L18.8869 3.74038C18.2427 4.11261 17.8457 4.7998 17.8457 5.54361V18.977C17.8457 19.7209 18.2427 20.4087 18.8869 20.7803L23.6471 23.529C24.7345 24.157 26.0738 24.157 27.1612 23.529L32.0138 20.7269C32.6581 20.3547 33.055 19.6675 33.055 18.9237V5.59697C33.055 4.85316 32.6581 4.16532 32.0138 3.79374L27.1612 0.991611C26.0738 0.364287 24.7339 0.364287 23.6471 0.991611ZM29.7987 17.5955C29.7987 17.9534 29.5449 18.3927 29.2351 18.5716L25.9677 20.4582C25.658 20.6371 25.1504 20.6371 24.8406 20.4582L21.6656 18.625C21.3558 18.446 21.1021 18.0068 21.1021 17.6489V6.87244C21.1021 6.51453 21.3558 6.07527 21.6656 5.89632L24.8406 4.06315C25.1504 3.8842 25.658 3.8842 25.9677 4.06315L29.2351 5.94968C29.5449 6.12863 29.7987 6.56789 29.7987 6.9258V17.5955Z" fill="#5528FF"/>
<path d="M13.7289 12.1415C13.4191 11.9626 13.4191 11.6697 13.7289 11.4908L14.6829 10.9403C14.9926 10.7613 15.2464 10.322 15.2464 9.96413V5.07699C15.2464 4.33318 14.8495 3.64534 14.2052 3.27376L9.35193 0.470981C8.26453 -0.156994 6.92529 -0.156994 5.83788 0.470981L1.0412 3.24057C0.396958 3.6128 0 4.3 0 5.0438V18.9289C0 19.6727 0.396958 20.3605 1.0412 20.7321L5.88474 23.5284C6.97214 24.1563 8.31138 24.1563 9.39879 23.5284L14.9256 20.3377C15.5699 19.9655 15.9668 19.2783 15.9668 18.5345V14.0834C15.9668 13.7255 15.713 13.2862 15.4033 13.1073L13.7289 12.1415ZM3.41774 5.62883L7.03136 3.54252C7.34112 3.36357 7.8487 3.36357 8.15846 3.54252L11.4265 5.42905C11.7363 5.608 11.9901 6.04726 11.9901 6.40517V8.08346C11.9901 8.44137 11.7363 8.88063 11.4265 9.05959L10.4725 9.61012C10.1628 9.78908 9.65518 9.78908 9.34543 9.61012L3.41774 6.18847C3.31753 6.13056 3.25636 6.02383 3.25636 5.90865C3.25636 5.79282 3.31818 5.68675 3.41774 5.62883ZM12.7105 17.2063C12.7105 17.5642 12.4567 18.0035 12.1469 18.1825L8.20596 20.4581C7.89621 20.6371 7.38862 20.6371 7.07886 20.4581L3.8199 18.5768C3.51015 18.3979 3.25636 17.9586 3.25636 17.6007V10.5062C3.25636 10.1483 3.51015 10.0019 3.8199 10.1808L12.1463 14.9879C12.456 15.1669 12.7098 15.6061 12.7098 15.964V17.2063H12.7105Z" fill="#5528FF"/>
<path d="M52.5876 5.78561C52.2779 5.60665 52.0241 5.75307 52.0241 6.11098V8.52266C52.0241 9.26647 52.421 9.95431 53.0653 10.3259L63.4044 16.2952C63.7142 16.4742 63.968 16.9134 63.968 17.2713V17.6215C63.968 17.9794 63.7142 18.4186 63.4044 18.5976L60.1826 20.4574C59.8728 20.6364 59.3652 20.6364 59.0555 20.4574L52.587 16.7228C52.2772 16.5438 52.0234 16.6902 52.0234 17.0481V18.9555C52.0234 19.6993 52.4204 20.3871 53.0646 20.7587L57.862 23.5283C58.9494 24.1563 60.2886 24.1563 61.376 23.5283L66.1831 20.7529C66.8274 20.3806 67.2243 19.6934 67.2243 18.9496V15.4375C67.2243 14.6937 66.8274 14.0059 66.1831 13.6343L52.5876 5.78561Z" fill="#5528FF"/>
<path d="M66.1846 4.35268L61.3931 1.58634C60.3057 0.958363 58.9664 0.958363 57.879 1.58634L56.9433 2.12646C56.6335 2.30542 56.6335 2.59825 56.9433 2.77721L66.6622 8.38863C66.972 8.56759 67.2258 8.42117 67.2258 8.06326V6.15656C67.2258 5.4121 66.8288 4.72491 66.1846 4.35268Z" fill="#5528FF"/>
<path d="M41.9012 4.06315C42.2109 3.8842 42.7185 3.8842 43.0283 4.06315L49.5657 7.83751C49.8755 8.01646 50.1293 7.87004 50.1293 7.51213V5.60478C50.1293 4.86097 49.7323 4.17313 49.0881 3.80155L44.2217 0.991611C43.1343 0.363636 41.7951 0.363636 40.7077 0.991611L35.9696 3.72737C35.3253 4.09959 34.9284 4.78679 34.9284 5.5306V8.17199C34.9284 8.9158 35.3253 9.60364 35.9696 9.97522L46.3087 15.9446C46.6185 16.1235 46.8722 16.5628 46.8722 16.9207V17.587C46.8722 17.945 46.6185 18.3842 46.3087 18.5632L43.0276 20.4575C42.7179 20.6365 42.2103 20.6365 41.9005 20.4575L35.4913 16.7573C35.1815 16.5784 34.9277 16.7248 34.9277 17.0827V18.9901C34.9277 19.7339 35.3247 20.4217 35.9689 20.7933L40.707 23.5291C41.7944 24.157 43.1337 24.157 44.2211 23.5291L49.0874 20.7191C49.7316 20.3469 50.1286 19.6597 50.1286 18.9159V15.0875C50.1286 14.3437 49.7316 13.6559 49.0874 13.2843L38.7489 7.31495C38.4392 7.136 38.1854 6.81388 38.1854 6.59913C38.1854 6.38438 38.4392 6.06226 38.7489 5.8833L41.9012 4.06315Z" fill="#5528FF"/>
</svg>
